<svg width="34" height="28" viewBox="0 0 34 28" fill="none" xmlns="http://www.w3.org/2000/svg">
<path d="M33.645 3.72533C32.4202 4.25368 31.0873 4.63392 29.7144 4.78202C31.1398 3.93521 32.2072 2.5974 32.7164 1.01958C31.3788 1.81525 29.9136 2.37319 28.3855 2.66865C27.7469 1.98591 26.9745 1.44201 26.1165 1.07084C25.2585 0.69967 24.3332 0.509182 23.3983 0.511247C19.6159 0.511247 16.5739 3.57724 16.5739 7.33968C16.5739 7.86802 16.6379 8.39636 16.742 8.90469C11.0783 8.6085 6.02705 5.90275 2.66887 1.76006C2.05697 2.8052 1.73632 3.99521 1.74026 5.20629C1.74026 7.57583 2.94505 9.66519 4.78224 10.894C3.69955 10.8513 2.64222 10.5538 1.69624 10.0254V10.1095C1.69624 13.4276 4.04176 16.1774 7.16779 16.8098C6.58084 16.9623 5.97704 17.0403 5.37062 17.042C4.92633 17.042 4.50606 16.9979 4.08178 16.9379C4.94634 19.6437 7.46398 21.6089 10.4619 21.673C8.1164 23.5102 5.17849 24.5909 1.98843 24.5909C1.41605 24.5909 0.887711 24.5709 0.339355 24.5068C3.36532 26.4481 6.95565 27.5688 10.8222 27.5688C23.3743 27.5688 30.2428 17.1701 30.2428 8.1442C30.2428 7.84801 30.2428 7.55182 30.2227 7.25562C31.5516 6.28299 32.7164 5.07821 33.645 3.72533Z" fill="white"/>
</svg>
